<svg xmlns="http://www.w3.org/2000/svg" viewBox="0 0 720 560" role="img" aria-labelledby="title desc">
  <title id="title">SMILE connects soundscape evidence and acoustic design</title>
  <desc id="desc">Sound and context are translated into human-centred targets, engineered structures, and evidence from measurement and participant evaluation.</desc>
  <rect x="1" y="1" width="718" height="558" rx="32" fill="#102b46" stroke="#31506d" stroke-width="2"/>
  <path d="M78 159c40 0 40-72 80-72s40 144 80 144 40-174 80-174 40 102 80 102 40-46 80-46 40 88 80 88 40-42 80-42" fill="none" stroke="#77ddd2" stroke-width="10" stroke-linecap="round" stroke-linejoin="round"/>
  <circle cx="78" cy="159" r="13" fill="#f0b44d"/>
  <circle cx="638" cy="159" r="13" fill="#f0b44d"/>

  <g transform="translate(72 292)">
    <rect width="170" height="176" rx="22" fill="#173a59" stroke="#4e7190" stroke-width="2"/>
    <circle cx="85" cy="52" r="23" fill="none" stroke="#eef6fc" stroke-width="6"/>
    <path d="M45 122c9-30 28-45 40-45s31 15 40 45" fill="none" stroke="#eef6fc" stroke-width="6" stroke-linecap="round"/>
    <text x="85" y="153" fill="#bcd2e5" font-family="Arial, Helvetica, sans-serif" font-size="19" font-weight="700" text-anchor="middle">EXPERIENCE</text>
  </g>

  <path d="M257 380h65" fill="none" stroke="#f0b44d" stroke-width="5" stroke-linecap="round"/>
  <path d="m310 366 18 14-18 14" fill="none" stroke="#f0b44d" stroke-width="5" stroke-linecap="round" stroke-linejoin="round"/>

  <g transform="translate(338 292)">
    <rect width="170" height="176" rx="22" fill="#173a59" stroke="#4e7190" stroke-width="2"/>
    <path d="M36 81h98M36 54h98M36 108h98M63 31v104M107 31v104" fill="none" stroke="#77ddd2" stroke-width="6" stroke-linecap="round"/>
    <circle cx="63" cy="54" r="10" fill="#f0b44d"/>
    <circle cx="107" cy="108" r="10" fill="#f0b44d"/>
    <text x="85" y="153" fill="#bcd2e5" font-family="Arial, Helvetica, sans-serif" font-size="19" font-weight="700" text-anchor="middle">STRUCTURE</text>
  </g>

  <path d="M523 380h45" fill="none" stroke="#f0b44d" stroke-width="5" stroke-linecap="round"/>
  <path d="m556 366 18 14-18 14" fill="none" stroke="#f0b44d" stroke-width="5" stroke-linecap="round" stroke-linejoin="round"/>

  <g transform="translate(580 312)">
    <circle cx="46" cy="68" r="46" fill="#0d766e"/>
    <path d="m22 68 15 16 31-34" fill="none" stroke="#fff" stroke-width="8" stroke-linecap="round" stroke-linejoin="round"/>
  </g>

  <path d="M626 483C520 538 205 534 138 483" fill="none" stroke="#55748f" stroke-width="3" stroke-dasharray="10 10" stroke-linecap="round"/>
  <text x="360" y="525" fill="#bcd2e5" font-family="Arial, Helvetica, sans-serif" font-size="18" font-weight="700" text-anchor="middle">DESIGN · TEST · LEARN</text>
</svg>
