<svg xmlns="http://www.w3.org/2000/svg" width="1400" height="600" viewBox="0 0 1400 600">
  <defs>
    <linearGradient id="bg" x1="0" y1="0" x2="1" y2="1">
      <stop offset="0" stop-color="#0b1b4f"/>
      <stop offset="1" stop-color="#1c7ed6"/>
    </linearGradient>
    <linearGradient id="sun" x1="0" y1="0" x2="0" y2="1">
      <stop offset="0" stop-color="#ffd43b"/>
      <stop offset="1" stop-color="#ff922b"/>
    </linearGradient>
    <filter id="soft" x="-20%" y="-20%" width="140%" height="140%">
      <feGaussianBlur stdDeviation="6" result="blur"/>
      <feColorMatrix in="blur" type="matrix"
        values="1 0 0 0 0
                0 1 0 0 0
                0 0 1 0 0
                0 0 0 0.35 0"/>
      <feMerge>
        <feMergeNode/>
        <feMergeNode in="SourceGraphic"/>
      </feMerge>
    </filter>
  </defs>

  <!-- background -->
  <rect x="0" y="0" width="1400" height="600" fill="url(#bg)"/>

  <!-- subtle wave field -->
  <g opacity="0.18" stroke="#ffffff" stroke-width="2" fill="none">
    <path d="M-50 420 C 150 360, 250 480, 450 420 S 750 360, 950 420 S 1250 480, 1450 420"/>
    <path d="M-50 460 C 150 400, 250 520, 450 460 S 750 400, 950 460 S 1250 520, 1450 460"/>
    <path d="M-50 500 C 150 440, 250 560, 450 500 S 750 440, 950 500 S 1250 560, 1450 500"/>
  </g>

  <!-- split: indoor vs outdoor -->
  <g filter="url(#soft)">
    <!-- left card indoor -->
    <rect x="110" y="120" width="520" height="360" rx="26" fill="#0a2a66" opacity="0.78" stroke="#b6d7ff" stroke-opacity="0.25"/>
    <!-- right card outdoor -->
    <rect x="770" y="120" width="520" height="360" rx="26" fill="#063d2a" opacity="0.65" stroke="#c3fae8" stroke-opacity="0.22"/>
  </g>

  <!-- indoor icon: room + person -->
  <g transform="translate(170,185)" fill="none" stroke="#e7f5ff" stroke-width="6" stroke-linecap="round" stroke-linejoin="round" opacity="0.95">
    <path d="M30 240 V70 L240 20 L450 70 V240"/>
    <path d="M110 240 V150 H370 V240"/>
    <circle cx="240" cy="140" r="18" fill="#e7f5ff" stroke="none"/>
    <path d="M210 195 C235 165, 245 165, 270 195"/>
    <!-- comfort waves -->
    <path d="M70 120 C110 90, 150 150, 190 120" opacity="0.55"/>
    <path d="M290 120 C330 90, 370 150, 410 120" opacity="0.55"/>
  </g>

  <!-- outdoor icon: park + road noise -->
  <g transform="translate(830,185)" fill="none" stroke="#e6fcf5" stroke-width="6" stroke-linecap="round" stroke-linejoin="round" opacity="0.95">
    <!-- horizon -->
    <path d="M30 220 C140 170, 220 260, 340 210 C420 175, 460 185, 480 195"/>
    <!-- trees -->
    <path d="M120 220 V150"/>
    <circle cx="120" cy="125" r="32" fill="#e6fcf5" stroke="none" opacity="0.35"/>
    <path d="M260 220 V150"/>
    <circle cx="260" cy="125" r="32" fill="#e6fcf5" stroke="none" opacity="0.35"/>
    <!-- road (traffic) -->
    <path d="M30 260 H480" opacity="0.5"/>
    <path d="M60 260 l30 -18 h60 l30 18" opacity="0.5"/>
    <!-- noise rays -->
    <path d="M430 80 C470 60, 490 80, 510 60" opacity="0.45"/>
    <path d="M430 110 C480 90, 505 110, 535 90" opacity="0.30"/>
  </g>

  <!-- central SMILE face (metamaterial spiral smile) -->
  <g transform="translate(700,85)">
    <circle cx="0" cy="0" r="78" fill="url(#sun)" opacity="0.95"/>
    <circle cx="-28" cy="-18" r="8" fill="#0b1b4f" opacity="0.85"/>
    <circle cx="28" cy="-18" r="8" fill="#0b1b4f" opacity="0.85"/>
    <!-- smile arc -->
    <path d="M-34 10 C -10 44, 10 44, 34 10" stroke="#0b1b4f" stroke-width="8" fill="none" stroke-linecap="round"/>
    <!-- spiral hint (metamaterial) -->
    <path d="M0 86
             c 26 0 46 18 46 40
             c 0 26 -22 44 -48 44
             c -32 0 -56 -22 -56 -52
             c 0 -36 30 -64 70 -64" 
          stroke="#ffd8a8" stroke-width="6" fill="none" opacity="0.55"/>
  </g>

  <!-- text -->
  <g font-family="ui-sans-serif, system-ui, -apple-system, Segoe UI, Roboto, Arial" fill="#ffffff">
    <text x="110" y="90" font-size="42" font-weight="700">SMILE</text>
    <text x="110" y="126" font-size="20" opacity="0.9">Soundscape engineering with Metamaterial Innovation and LEarning</text>

    <text x="150" y="165" font-size="22" font-weight="650" opacity="0.95">Indoor comfort</text>
    <text x="150" y="194" font-size="16" opacity="0.85">Healthier, more pleasant sound environments in cabins and rooms.</text>

    <text x="810" y="165" font-size="22" font-weight="650" opacity="0.95">Outdoor sustainability</text>
    <text x="810" y="194" font-size="16" opacity="0.85">Quieter parks and streetscapes under real traffic noise.</text>

    <text x="110" y="560" font-size="14" opacity="0.7">A VR-funded project (2026–2029) • KTH / Scania / UCL</text>
  </g>
</svg>
